<!DOCTYPE svg PUBLIC "-//W3C//DTD SVG 1.1//EN" "http://www.w3.org/Graphics/SVG/1.1/DTD/svg11.dtd">
<!-- Uploaded to: SVG Repo, www.svgrepo.com, Transformed by: SVG Repo Mixer Tools -->
<svg fill="#ffffff" version="1.1" id="Layer_1" xmlns="http://www.w3.org/2000/svg" xmlns:xlink="http://www.w3.org/1999/xlink" viewBox="0 0 475 475" xml:space="preserve" width="800px" height="800px">
<g id="SVGRepo_bgCarrier" stroke-width="0"/>
<g id="SVGRepo_tracerCarrier" stroke-linecap="round" stroke-linejoin="round"/>
<g id="SVGRepo_iconCarrier"> <g> <g> <g> <path d="M237.5,0c-82.71,0-150,67.29-150,150c0,57.925,33.147,110.298,85,135.238V395c0,5.523,4.477,10,10,10h10v40 c0,5.523,4.477,10,10,10h25v20h20v-20h25c5.522,0,10-4.477,10-10v-40h10c5.522,0,10-4.477,10-10V285.238 c51.853-24.939,85-77.313,85-135.238C387.5,67.29,320.21,0,237.5,0z M262.5,435h-50v-30h50V435z M282.5,385h-10h-70h-10v-20h90 V385z M282.5,345h-90v-15h90V345z M288.565,269.605c-3.679,1.574-6.065,5.191-6.065,9.193V310h-90v-31.201 c0-4.002-2.387-7.619-6.065-9.193C138.483,249.086,107.5,202.138,107.5,150c0-71.682,58.317-130,130-130s130,58.318,130,130 C367.5,202.138,336.517,249.086,288.565,269.605z"/> <path d="M272.5,145h-56.618l45.014-69.567l-16.791-10.865l-55,85c-1.99,3.076-2.14,6.994-0.389,10.211 c1.751,3.218,5.121,5.221,8.784,5.221h59.242l-33.29,70.742l18.096,8.516l40-85c1.458-3.098,1.229-6.726-0.605-9.616 C279.109,146.751,275.924,145,272.5,145z"/> <rect x="137.5" y="145" width="20" height="20"/> <rect x="317.5" y="145" width="20" height="20"/> </g> </g> </g> </g>
</svg>